<svg xmlns="http://www.w3.org/2000/svg" viewBox="0 0 100 100" width="100" height="100">
  <circle cx="50" cy="50" r="45" fill="#8B5CF6" opacity="0.2"/>
  <circle cx="50" cy="50" r="40" fill="#8B5CF6"/>
  <path d="M50 20 L45 30 L35 35 L40 45 L35 55 L45 60 L50 70 L55 60 L65 55 L60 45 L65 35 L55 30 Z" fill="#C4B5FD"/>
  <path d="M50 25 L47 33 L40 37 L44 45 L40 53 L47 57 L50 65 L53 57 L60 53 L56 45 L60 37 L53 33 Z" fill="white"/>
  <circle cx="50" cy="45" r="8" fill="#A78BFA"/>
  <text x="50" y="92" font-family="Arial" font-size="9" fill="white" text-anchor="middle">30 Days</text>
</svg>
