<svg xmlns="http://www.w3.org/2000/svg" viewBox="0 0 100 100" width="100" height="100">
  <defs>
    <radialGradient id="fireGradient">
      <stop offset="0%" stop-color="#FCD34D"/>
      <stop offset="50%" stop-color="#F59E0B"/>
      <stop offset="100%" stop-color="#DC2626"/>
    </radialGradient>
  </defs>
  <circle cx="50" cy="50" r="45" fill="#DC2626" opacity="0.3"/>
  <circle cx="50" cy="50" r="40" fill="url(#fireGradient)"/>
  <path d="M50 18 L45 28 L35 33 L40 43 L35 53 L45 58 L50 68 L55 58 L65 53 L60 43 L65 33 L55 28 Z" fill="#FEF3C7"/>
  <path d="M50 23 L47 31 L40 35 L44 43 L40 51 L47 55 L50 63 L53 55 L60 51 L56 43 L60 35 L53 31 Z" fill="white"/>
  <circle cx="50" cy="43" r="10" fill="#FBBF24"/>
  <path d="M50 36 L48 42 L42 43 L46 47 L45 53 L50 50 L55 53 L54 47 L58 43 L52 42 Z" fill="white"/>
  <text x="50" y="93" font-family="Arial" font-size="7" fill="white" text-anchor="middle" font-weight="bold">100 Days</text>
</svg>
